<?xml version="1.0" encoding="UTF-8"?>
<svg id="Layer_2" data-name="Layer 2" xmlns="http://www.w3.org/2000/svg" viewBox="0 0 732.43 157.03">
  <defs>
    <style>
      .cls-1 {
        fill: #faa61a;
      }

      .cls-2 {
        fill: #010101;
      }

      .cls-3, .cls-4 {
        fill: #231f20;
      }

      .cls-4 {
        font-family: ContinentalStagSans-Book, 'Continental Stag Sans';
        font-size: 23.74px;
      }
    </style>
  </defs>
  <g id="Layer_1-2" data-name="Layer 1">
    <g>
      <g>
        <g>
          <path class="cls-3" d="M3.19,10.87H15.11c9.1,0,14.29,3.6,14.29,11.46s-5.24,11.51-14.49,11.51h-3.7v13H3.19V10.87ZM11.2,28.44h3.7c4.88,0,6.42-2.21,6.42-6.01s-1.34-5.81-6.42-5.81h-3.7v11.82Z"/>
          <path class="cls-3" d="M32.12,28.85c0-11.87,8.07-18.4,17.27-18.4s17.27,6.53,17.27,18.4-8.07,18.4-17.27,18.4-17.27-6.53-17.27-18.4Zm26.31,.15c0-8.84-3.8-12.9-9.04-12.9s-9.04,4.06-9.04,12.9,3.75,12.69,9.04,12.69,9.04-3.91,9.04-12.69Z"/>
          <path class="cls-3" d="M68.3,12.97v-2.11h7.61l5.55,26.06h.1l6.17-26.06h6.78l6.37,26.06h.1l5.34-26.06h6.73v2.11l-8.07,33.87h-8.89l-5.4-23.54h-.1l-5.34,23.54h-8.94l-8.02-33.87Z"/>
          <path class="cls-3" d="M117.43,10.87h23.69v5.81h-15.78v9.15h11.31v5.5h-11.31v9.87h16.34v5.65h-24.26V10.87Z"/>
          <path class="cls-3" d="M159.26,32.76h-4.68v14.08h-8.02V10.87h12.08c8.84,0,13.82,3.6,13.82,10.54,0,4.78-2.11,8.02-5.76,9.82l7.55,13.52v2.11h-7.35l-7.66-14.08Zm-4.68-5.5h3.85c4.21,0,5.96-1.85,5.96-5.4s-1.75-5.29-5.96-5.29h-3.85v10.69Z"/>
          <path class="cls-3" d="M179.05,10.87h23.69v5.81h-15.78v9.15h11.31v5.5h-11.31v9.87h16.34v5.65h-24.26V10.87Z"/>
          <path class="cls-3" d="M208.19,10.87h11.36c12.08,0,18.91,5.5,18.91,17.83s-6.89,18.14-19.12,18.14h-11.15V10.87Zm11.15,30.32c7.45,0,10.9-3.49,10.9-12.38s-3.39-12.18-10.9-12.18h-3.14v24.57h3.14Z"/>
          <path class="cls-3" d="M252.9,10.87h12.33c8.48,0,12.69,2.93,12.69,9.46,0,4.32-2.57,6.63-6.37,7.45v.21c4.57,.87,7.71,3.29,7.71,8.38,0,6.73-4.83,10.48-13.62,10.48h-12.75V10.87Zm12.13,14.54c3.44,0,4.99-1.44,4.99-4.52,0-2.88-1.54-4.37-4.99-4.37h-4.27v8.89h4.27Zm.41,15.78c3.85,0,5.6-2,5.6-5.19s-1.85-5.19-5.6-5.19h-4.68v10.38h4.68Z"/>
          <path class="cls-3" d="M291.75,46.84v-13.93l-11.15-19.79v-2.26h7.5l8.07,15.11h.1l7.76-15.11h6.17v2.26l-10.43,19.58v14.13h-8.02Z"/>
          <path class="cls-3" d="M1.49,90.52c0-11.87,8.07-18.4,17.27-18.4s17.27,6.53,17.27,18.4-8.07,18.4-17.27,18.4S1.49,102.4,1.49,90.52Zm26.31,.15c0-8.84-3.8-12.9-9.04-12.9s-9.04,4.06-9.04,12.9,3.75,12.69,9.04,12.69,9.04-3.91,9.04-12.69Z"/>
          <path class="cls-3" d="M62.65,94.64v-22.1h6.68v21.89c0,9.25-3.75,14.49-13.93,14.49s-14.85-5.24-14.85-14.49v-21.89h8.02v22.1c0,6.73,2.67,8.38,7.3,8.38,4.37,0,6.78-1.64,6.78-8.38Z"/>
          <path class="cls-3" d="M88.24,94.43h-4.68v14.08h-8.02v-35.97h12.08c8.84,0,13.82,3.6,13.82,10.54,0,4.78-2.11,8.02-5.76,9.82l7.55,13.52v2.11h-7.35l-7.66-14.08Zm-4.68-5.5h3.85c4.21,0,5.96-1.85,5.96-5.4s-1.75-5.29-5.96-5.29h-3.85v10.69Z"/>
          <path class="cls-3" d="M117.79,72.54h11.92c9.1,0,14.29,3.6,14.29,11.46s-5.24,11.51-14.49,11.51h-3.7v13h-8.02v-35.97Zm8.02,17.58h3.7c4.88,0,6.42-2.21,6.42-6.01s-1.34-5.81-6.42-5.81h-3.7v11.82Z"/>
          <path class="cls-3" d="M148.42,72.54h23.69v5.81h-15.78v9.15h11.31v5.5h-11.31v9.87h16.34v5.65h-24.26v-35.97Z"/>
          <path class="cls-3" d="M175.09,90.52c0-11.87,8.07-18.4,17.27-18.4s17.27,6.53,17.27,18.4-8.07,18.4-17.27,18.4-17.27-6.53-17.27-18.4Zm26.31,.15c0-8.84-3.8-12.9-9.04-12.9s-9.04,4.06-9.04,12.9,3.75,12.69,9.04,12.69,9.04-3.91,9.04-12.69Z"/>
          <path class="cls-3" d="M214.3,72.54h11.92c9.1,0,14.29,3.6,14.29,11.46s-5.24,11.51-14.49,11.51h-3.7v13h-8.02v-35.97Zm8.02,17.58h3.7c4.88,0,6.42-2.21,6.42-6.01s-1.34-5.81-6.42-5.81h-3.7v11.82Z"/>
          <path class="cls-3" d="M244.93,108.51v-35.97h8.02v30.32h14.85v5.65h-22.87Z"/>
          <path class="cls-3" d="M272.53,72.54h23.69v5.81h-15.78v9.15h11.31v5.5h-11.31v9.87h16.34v5.65h-24.26v-35.97Z"/>
        </g>
        <text class="cls-4" transform="translate(0 151.81)"><tspan x="0" y="0">CONTINENTAL MIDDLE EAST</tspan></text>
        <polygon class="cls-3" points="1.98 124.48 39.8 124.23 77.61 124.15 153.25 123.98 228.88 124.14 266.7 124.23 304.51 124.48 266.7 124.72 228.88 124.81 153.25 124.98 77.61 124.81 39.8 124.72 1.98 124.48"/>
      </g>
      <g>
        <path class="cls-1" d="M561.7,68.95c-1.15-18.26-5.71-33.28-13.67-45.05-3.32-4.93-7.09-9.1-11.31-12.5-9.42-7.6-21.08-11.4-34.99-11.4-12.31,0-22.75,3.02-31.34,9.05,9.06,7.63,14.58,17.6,16.47,29.72,3.95-5.62,9.32-8.43,16.12-8.43,7.98,0,13.94,3,17.86,9,1.4,2.14,2.53,4.65,3.41,7.54,1.49,4.9,2.41,12.25,2.76,22.05,.11,2.96,.16,6.15,.16,9.57,0,14.27-1.08,24.81-3.25,31.62-3.46,11.03-10.45,16.54-20.95,16.54s-17.49-5.51-20.95-16.54c-2.25-7.16-3.39-17.56-3.41-31.18-1.53,2.19-3.25,4.27-5.17,6.25-4.19,4.31-13.22,10.99-27.57,20.39,2.1,9.87,5.44,18.62,10.05,26.24,10.29,16.8,25.56,25.19,45.81,25.19,4.38,0,8.54-.36,12.48-1.1v-.75c0-22,8.42-40.47,25.02-54.91,2.12-1.88,5.87-4.7,11.46-8.63,1.89-1.37,4.82-3.45,8.96-6.37l.08-.06,2.19-1.42c.06-1.73,.08-3.49,.08-5.28,0-3.28-.1-6.47-.3-9.57Z"/>
        <path class="cls-2" d="M625.46,147.11c-7.39-6.21-12.69-14.1-15.87-23.6h-41.19l9.25-8.62c7.47-5.53,13.26-9.54,17.37-12.04,4.06-2.63,7.72-5.07,10.99-7.3,.61-.42,1.21-.83,1.79-1.23,8.13-5.62,13.61-9.88,16.44-12.78,8.44-8.68,12.67-19.64,12.67-32.88,0-15.62-5.47-27.77-16.4-36.45-9.96-8.13-22.9-12.21-38.82-12.21-15.05,0-27.4,3.81-37.06,11.43,2.81,2.82,5.4,5.99,7.78,9.52,4.12,6.09,7.39,13.02,9.8,20.74,4.14-6.15,10.74-9.23,19.81-9.23,5.63,0,10.21,1.79,13.73,5.37,3.52,3.58,5.28,8.25,5.28,14,0,4.67-1.68,9-5.04,13.02-3.9,4.56-8.66,8.69-14.3,12.37l-14.62,9.51-4.39,2.86c-4.01,2.82-6.99,4.94-8.94,6.35-5.41,3.8-9.1,6.57-11.05,8.3-15.49,13.46-23.23,30.44-23.23,50.94h118.5c-4.55-2.19-8.72-4.88-12.51-8.07Z"/>
        <path class="cls-2" d="M707.2,72.18c6.64-1.3,11.87-4.99,15.68-11.06,3.37-5.42,5.06-11.7,5.06-18.86,0-14.41-6.13-25.41-18.38-33-9.98-6.18-22.29-9.27-36.94-9.27-16.59,0-30.1,4.45-40.51,13.36-.5,.42-.99,.86-1.47,1.3,7.67,8.96,11.55,20.36,11.55,34,0,1.12-.03,2.22-.08,3.31h7.4c0-14.41,7.7-21.62,23.09-21.62,5.31,0,9.97,1.19,13.98,3.57,4.88,2.82,7.32,6.71,7.32,11.69,0,10.94-8.03,16.4-24.08,16.4h-9.6v25.54l9.62-.74c7.18-.43,13.59,1.13,19.25,4.7,4.78,3.14,7.18,8.54,7.18,16.2,0,6.37-2.33,11.12-7,14.26-4.67,3.13-10.31,4.69-16.93,4.69-18.02,0-27.02-9.03-27.02-27.09h-34.03c0,6.8,.74,13.02,2.22,18.64,2.68,10.21,7.8,18.49,15.35,24.84,4.44,3.74,9.46,6.73,15.04,8.96,8.31,3.33,17.87,4.99,28.69,4.99,16.58,0,30.19-3.85,40.82-11.54,12.68-9.21,19.02-21.78,19.02-37.71,0-18.96-8.41-30.83-25.23-35.6Z"/>
        <path class="cls-2" d="M451.41,134.59l-.02-.03c-2.09-3.46-3.94-7.15-5.55-11.05h-32.05l9.25-8.62c7.22-5.35,12.88-9.28,16.96-11.79,.14-.08,.27-.17,.41-.25,15.37-9.98,25.11-17.08,29.22-21.31,8.44-8.68,12.67-19.64,12.67-32.88,0-15.62-5.47-27.77-16.4-36.45-1.31-1.07-2.68-2.07-4.09-3-9.33-6.13-20.9-9.2-34.73-9.2-18.85,0-33.46,5.97-43.86,17.91-9.86,11.4-14.78,26.65-14.78,45.75h33.95c0-20.8,8.34-31.21,25.01-31.21,5.63,0,10.21,1.79,13.73,5.37,.77,.79,1.46,1.63,2.06,2.52,2.14,3.17,3.21,7,3.21,11.48s-1.68,9-5.04,13.02c-.98,1.15-2.01,2.26-3.1,3.35-3.25,3.25-6.98,6.26-11.2,9.02l-19.01,12.37c-4.01,2.82-6.99,4.94-8.94,6.35-5.42,3.8-9.1,6.57-11.05,8.3-15.49,13.46-23.23,30.44-23.23,50.94h107.33c-8.28-4.63-15.23-11.5-20.8-20.59Z"/>
      </g>
    </g>
  </g>
</svg>