<?xml version="1.0" encoding="UTF-8"?>
<svg id="Layer_2" data-name="Layer 2" xmlns="http://www.w3.org/2000/svg" viewBox="0 0 64.38 56.03">
  <defs>
    <style>
      .cls-1 {
        stroke-linecap: round;
      }

      .cls-1, .cls-2 {
        stroke-linejoin: round;
      }

      .cls-1, .cls-2, .cls-3 {
        fill: none;
        stroke: #231f20;
        stroke-width: 2.8px;
      }

      .cls-3 {
        stroke-miterlimit: 10;
      }
    </style>
  </defs>
  <g id="Layer_1-2" data-name="Layer 1">
    <g>
      <path class="cls-1" d="M57.43,51.83v1.4c0,.77-.63,1.4-1.4,1.4H2.8c-.77,0-1.4-.63-1.4-1.4V7c0-.77,.63-1.4,1.4-1.4h7"/>
      <path class="cls-1" d="M49.02,5.6h7c.77,0,1.4,.63,1.4,1.4v9.8"/>
      <line class="cls-2" x1="1.4" y1="16.81" x2="57.43" y2="16.81"/>
      <line class="cls-1" x1="44.82" y1="1.4" x2="44.82" y2="8.4"/>
      <line class="cls-1" x1="18.21" y1="5.6" x2="40.62" y2="5.6"/>
      <line class="cls-1" x1="14.01" y1="1.4" x2="14.01" y2="8.4"/>
      <line class="cls-3" x1="25.21" y1="25.21" x2="29.41" y2="25.21"/>
      <line class="cls-3" x1="32.22" y1="25.21" x2="36.42" y2="25.21"/>
      <line class="cls-3" x1="43.42" y1="25.21" x2="39.22" y2="25.21"/>
      <line class="cls-3" x1="18.21" y1="32.22" x2="22.41" y2="32.22"/>
      <line class="cls-3" x1="25.21" y1="32.22" x2="29.41" y2="32.22"/>
      <line class="cls-3" x1="32.22" y1="32.22" x2="36.42" y2="32.22"/>
      <line class="cls-3" x1="43.42" y1="32.22" x2="39.22" y2="32.22"/>
      <line class="cls-3" x1="18.21" y1="39.22" x2="22.41" y2="39.22"/>
      <line class="cls-3" x1="25.21" y1="39.22" x2="29.41" y2="39.22"/>
      <line class="cls-3" x1="32.22" y1="39.22" x2="36.42" y2="39.22"/>
      <path class="cls-2" d="M57.43,16.81c0,10.34,1.45,20.68,5.41,28.82,.45,.92-.23,1.99-1.26,1.99H9.54c-1.04,0-2.01-.56-2.48-1.48C2.91,37.93,1.4,27.37,1.4,16.81"/>
    </g>
  </g>
</svg>