<?xml version="1.0" encoding="UTF-8"?>
<svg id="Layer_2" data-name="Layer 2" xmlns="http://www.w3.org/2000/svg" viewBox="0 0 18.94 16.97">
  <defs>
    <style>
      .cls-1 {
        fill: #333;
      }
    </style>
  </defs>
  <g id="Layer_1-2" data-name="Layer 1">
    <g>
      <path class="cls-1" d="M10.09,8.06v5.91h-1.27v-4.47c-.07,.06-.15,.12-.25,.18-.1,.06-.2,.1-.3,.15-.11,.04-.22,.08-.33,.11-.12,.03-.23,.05-.34,.07v-1.07c.33-.1,.64-.22,.93-.37,.29-.15,.56-.32,.79-.5h.77Z"/>
      <path class="cls-1" d="M16.09,1.13h-1.7V.54c0-.3-.24-.54-.54-.54s-.54,.24-.54,.54v.59H5.62V.54c0-.3-.24-.54-.54-.54s-.54,.24-.54,.54v.59h-1.7C1.28,1.13,0,2.41,0,3.98V14.12c0,1.57,1.28,2.85,2.85,2.85h13.24c1.57,0,2.85-1.28,2.85-2.85V3.98c0-1.57-1.28-2.85-2.85-2.85ZM1.08,6.14H17.86v7.98c0,.98-.8,1.77-1.77,1.77H2.85c-.98,0-1.77-.8-1.77-1.77V6.14ZM5.08,3.34c.3,0,.54-.24,.54-.54v-.59h7.7v.59c0,.3,.24,.54,.54,.54s.54-.24,.54-.54v-.59h1.7c.98,0,1.77,.8,1.77,1.77v1.08H1.08v-1.08c0-.98,.8-1.77,1.77-1.77h1.7v.59c0,.3,.24,.54,.54,.54Z"/>
    </g>
  </g>
</svg>