<?xml version="1.0" encoding="UTF-8"?>
<svg id="Layer_2" data-name="Layer 2" xmlns="http://www.w3.org/2000/svg" viewBox="0 0 12.74 19.89">
  <defs>
    <style>
      .cls-1 {
        fill: #333;
      }
    </style>
  </defs>
  <g id="Layer_1-2" data-name="Layer 1">
    <g>
      <path class="cls-1" d="M6.37,17.48c-.17,0-.33-.09-.43-.23L1.07,9.89C.41,8.89,.04,7.75,0,6.58c-.03-1.1,.22-2.2,.74-3.19,.52-.98,1.28-1.81,2.19-2.4C3.91,.36,5.06,.02,6.25,0c.08,0,.16,0,.24,0,1.19,.02,2.34,.36,3.31,.99,.92,.59,1.68,1.42,2.19,2.4,.52,.99,.78,2.09,.74,3.19-.04,1.17-.41,2.31-1.07,3.31l-4.87,7.36c-.09,.14-.26,.23-.43,.23ZM1.92,9.33l4.45,6.71,4.45-6.71c1.1-1.66,1.2-3.69,.27-5.45-.92-1.75-2.65-2.81-4.62-2.85-.07,0-.14,0-.21,0-1.97,.03-3.7,1.1-4.62,2.85-.93,1.76-.82,3.8,.27,5.45Z"/>
      <path class="cls-1" d="M6.37,9.25c-1.6,0-2.9-1.3-2.9-2.9s1.3-2.9,2.9-2.9,2.9,1.3,2.9,2.9-1.3,2.9-2.9,2.9Zm0-4.78c-1.03,0-1.88,.84-1.88,1.88s.84,1.88,1.88,1.88,1.88-.84,1.88-1.88-.84-1.88-1.88-1.88Z"/>
      <path class="cls-1" d="M6.37,19.89C3.21,19.89,0,19,0,17.31,0,16.82,.29,16.1,1.67,15.52c.92-.39,2.18-.65,3.55-.74l.07,1.02c-1.26,.09-2.41,.32-3.22,.66-.77,.33-1.05,.66-1.05,.85,0,.24,.42,.64,1.37,.97,1.05,.37,2.46,.57,3.97,.57s2.92-.2,3.97-.57c.95-.33,1.37-.73,1.37-.97,0-.19-.27-.52-1.05-.85-.82-.34-1.96-.58-3.22-.66l.07-1.02c1.37,.09,2.64,.36,3.55,.74,1.38,.58,1.67,1.3,1.67,1.79,0,1.69-3.21,2.57-6.37,2.57Z"/>
    </g>
  </g>
</svg>