<?xml version="1.0" encoding="UTF-8"?>
<svg id="Layer_2" data-name="Layer 2" xmlns="http://www.w3.org/2000/svg" viewBox="0 0 74.89 47.57">
  <defs>
    <style>
      .cls-1 {
        fill: #fff;
      }
    </style>
  </defs>
  <g id="Layer_1-2" data-name="Layer 1">
    <path class="cls-1" d="M2.18,35.47c0-3.89,3.17-7.06,7.06-7.06h10.49c1.34,0,2.63,.37,3.74,1.07-.04,.02-.07,.04-.11,.06-.08,.04-.16,.09-.24,.14-.15,.08-.3,.17-.44,.26-.08,.05-.16,.1-.24,.15-.15,.09-.29,.19-.43,.29-.07,.05-.14,.1-.21,.15-.18,.13-.35,.26-.52,.4-.03,.03-.06,.05-.09,.07-.2,.16-.39,.34-.58,.51-.06,.05-.11,.11-.16,.16-.13,.13-.26,.25-.39,.39-.06,.07-.13,.14-.19,.21-.11,.12-.23,.25-.33,.38-.06,.07-.12,.14-.18,.22-.11,.14-.22,.28-.33,.43-.05,.06-.1,.13-.14,.19-.15,.21-.29,.42-.43,.64-.01,.02-.02,.04-.04,.06-.12,.2-.24,.4-.36,.6-.04,.07-.08,.15-.12,.22-.08,.16-.16,.31-.24,.47-.04,.09-.08,.17-.12,.26-.07,.16-.14,.31-.2,.47-.03,.08-.07,.17-.1,.25-.07,.18-.13,.36-.2,.55-.02,.06-.04,.12-.06,.19-.08,.24-.14,.47-.21,.72H2.18v-2.45h0ZM24.16,18.31c1.83,5.59,7.09,9.64,13.29,9.64s11.46-4.05,13.29-9.64c.41,3.59,2.78,6.6,6.01,7.91h-1.58c-2.26,0-4.4,.81-6.09,2.3-1.23-.37-2.51-.56-3.81-.56h-15.63c-1.3,0-2.57,.19-3.81,.56-1.69-1.48-3.83-2.3-6.09-2.3h-1.58c3.23-1.32,5.6-4.32,6.01-7.91h0Zm-17.23-1.11c0-4.17,3.39-7.56,7.56-7.56s7.56,3.39,7.56,7.56-3.39,7.56-7.56,7.56-7.56-3.39-7.56-7.56h0ZM37.44,2.18c6.51,0,11.8,5.29,11.8,11.8s-5.29,11.8-11.8,11.8-11.8-5.29-11.8-11.8S30.94,2.18,37.44,2.18h0Zm22.96,7.47c4.17,0,7.56,3.39,7.56,7.56s-3.39,7.56-7.56,7.56-7.56-3.39-7.56-7.56,3.39-7.56,7.56-7.56h0Zm12.3,25.82v2.45h-14.62c-.06-.24-.13-.48-.21-.71-.02-.06-.04-.12-.06-.19-.06-.18-.13-.37-.2-.55-.03-.09-.07-.17-.1-.25-.07-.16-.13-.32-.2-.47-.04-.09-.08-.17-.12-.25-.08-.16-.16-.32-.24-.47-.04-.07-.08-.15-.12-.22-.11-.21-.23-.41-.36-.61-.01-.02-.02-.04-.03-.06-.14-.22-.28-.43-.43-.64-.05-.06-.09-.12-.14-.19-.11-.14-.22-.29-.33-.43-.06-.07-.12-.14-.18-.21-.11-.13-.22-.26-.34-.38-.06-.07-.12-.14-.19-.2-.13-.13-.26-.26-.39-.39-.05-.05-.11-.11-.16-.16-.19-.18-.38-.35-.58-.51-.03-.02-.06-.05-.09-.07-.17-.14-.34-.27-.52-.4-.07-.05-.14-.1-.21-.15-.14-.1-.28-.2-.43-.29-.08-.05-.16-.1-.24-.16-.14-.09-.29-.18-.44-.26-.08-.05-.16-.09-.24-.14-.04-.02-.07-.04-.11-.06,1.11-.7,2.4-1.07,3.74-1.07h10.49c3.89,0,7.06,3.17,7.06,7.06h0Zm-16.39,9.92H18.57v-4.19c0-.66,.06-1.33,.18-1.99,.09-.47,.2-.93,.34-1.37,.14-.45,.32-.88,.51-1.31,.3-.63,.66-1.24,1.07-1.8,1.23-1.7,2.94-3.04,4.93-3.82,0,0,0,0,0,0,1.28-.5,2.63-.75,4.01-.75h15.63c1.38,0,2.73,.25,4.02,.76,3.55,1.39,6.18,4.57,6.86,8.31,.12,.67,.18,1.34,.18,1.99v4.19h0ZM1.09,40.1h15.35c-.03,.37-.05,.73-.05,1.1v5.28c0,.6,.49,1.09,1.09,1.09H57.41c.6,0,1.09-.49,1.09-1.09v-5.28c0-.36-.02-.73-.05-1.1h15.35c.6,0,1.09-.49,1.09-1.09v-3.54c0-5.09-4.14-9.24-9.24-9.24h-1.58c3.56-1.45,6.08-4.95,6.08-9.02,0-5.37-4.37-9.74-9.74-9.74-4.05,0-7.53,2.48-8.99,6.01-.27-7.48-6.43-13.48-13.97-13.48s-13.7,6-13.97,13.48c-1.47-3.52-4.94-6.01-8.99-6.01-5.37,0-9.74,4.37-9.74,9.74,0,4.08,2.52,7.57,6.08,9.02h-1.58c-5.09,0-9.24,4.14-9.24,9.24v3.54c0,.6,.49,1.09,1.09,1.09h0Z"/>
  </g>
</svg>