<?xml version="1.0" encoding="UTF-8"?>
<svg id="Layer_2" data-name="Layer 2" xmlns="http://www.w3.org/2000/svg" viewBox="0 0 85.48 93.54">
  <defs>
    <style>
      .cls-1 {
        fill: none;
        stroke: #fff;
        stroke-linecap: round;
        stroke-linejoin: round;
        stroke-width: 3.72px;
      }
    </style>
  </defs>
  <g id="Layer_1-2" data-name="Layer 1">
    <g>
      <path class="cls-1" d="M83.63,91.68l-.07-20.76c.97-7.78-13.56-5.66-24.56-12.49l4.21,11.42-10.21-.79-9.81,14.33-.45-.65-.45,.65-9.81-14.33-10.21,.79,4.21-11.42c-11,6.83-25.53,4.71-24.56,12.49l-.07,20.76"/>
      <g>
        <path class="cls-1" d="M34.81,52.69c-1.8,.39-5.25,.89-9.4-.11-4.16-1.01-7.01-3.04-8.43-4.22,.75-.31,1.78-.86,2.7-1.84,3.34-3.53,1.99-9.21,1.62-13.51C19.08,6.86,42.84-5.68,48.36,6.6h0"/>
        <path class="cls-1" d="M49.32,3.57c12.73,2.67,16.47,20.36,15.7,29.45-.37,4.31-1.72,9.98,1.62,13.51,.92,.98,1.95,1.52,2.7,1.84-1.42,1.17-4.27,3.21-8.43,4.22-4.15,1-7.6,.5-9.4,.11"/>
      </g>
    </g>
  </g>
</svg>